# Blender 4.3.0
# www.blender.org
o Cone
v 0.000000 -0.500000 0.500000
v -0.129410 -0.500000 0.482963
v -0.250000 -0.500000 0.433013
v -0.353553 -0.500000 0.353553
v -0.433013 -0.500000 0.250000
v -0.482963 -0.500000 0.129410
v -0.500000 -0.500000 0.000000
v -0.482963 -0.500000 -0.129410
v -0.433013 -0.500000 -0.250000
v -0.353553 -0.500000 -0.353553
v -0.250000 -0.500000 -0.433013
v -0.129410 -0.500000 -0.482963
v -0.000000 -0.500000 -0.500000
v 0.129410 -0.500000 -0.482963
v 0.250000 -0.500000 -0.433013
v 0.353553 -0.500000 -0.353553
v 0.433013 -0.500000 -0.250000
v 0.482963 -0.500000 -0.129410
v 0.500000 -0.500000 -0.000000
v 0.482963 -0.500000 0.129410
v 0.433013 -0.500000 0.250000
v 0.353553 -0.500000 0.353553
v 0.250000 -0.500000 0.433013
v 0.129410 -0.500000 0.482963
v 0.000000 0.500000 0.000000
v -0.314878 -0.500000 0.306186
v -0.355662 -0.500000 0.158494
v -0.369573 -0.500000 0.000000
v -0.355662 -0.500000 -0.158494
v -0.314878 -0.500000 -0.306186
v -0.165591 -0.500000 0.341506
v -0.188335 -0.500000 0.176777
v -0.196093 -0.500000 0.000000
v -0.188335 -0.500000 -0.176777
v -0.165591 -0.500000 -0.341506
v 0.000000 -0.500000 0.353553
v 0.000000 -0.500000 0.183013
v 0.000000 -0.500000 0.000000
v -0.000000 -0.500000 -0.183013
v -0.000000 -0.500000 -0.353553
v 0.165591 -0.500000 0.341506
v 0.188335 -0.500000 0.176777
v 0.196093 -0.500000 -0.000000
v 0.188335 -0.500000 -0.176777
v 0.165591 -0.500000 -0.341506
v 0.314878 -0.500000 0.306186
v 0.355662 -0.500000 0.158494
v 0.369573 -0.500000 -0.000000
v 0.355662 -0.500000 -0.158494
v 0.314878 -0.500000 -0.306186
v -0.129410 -0.500000 0.482963
v 0.000000 -0.500000 0.500000
v -0.250000 -0.500000 0.433013
v -0.353553 -0.500000 0.353553
v -0.433013 -0.500000 0.250000
v -0.482963 -0.500000 0.129410
v -0.500000 -0.500000 0.000000
v -0.482963 -0.500000 -0.129410
v -0.433013 -0.500000 -0.250000
v -0.353553 -0.500000 -0.353553
v -0.250000 -0.500000 -0.433013
v -0.129410 -0.500000 -0.482963
v -0.000000 -0.500000 -0.500000
v 0.129410 -0.500000 -0.482963
v 0.250000 -0.500000 -0.433013
v 0.353553 -0.500000 -0.353553
v 0.433013 -0.500000 -0.250000
v 0.482963 -0.500000 -0.129410
v 0.500000 -0.500000 -0.000000
v 0.482963 -0.500000 0.129410
v 0.433013 -0.500000 0.250000
v 0.353553 -0.500000 0.353553
v 0.250000 -0.500000 0.433013
v 0.129410 -0.500000 0.482963
vn -0.0000 0.4472 0.8944
vn -0.0000 1.0000 -0.0000
vn -0.2315 0.4472 0.8640
vn -0.4472 0.4472 0.7746
vn -0.6325 0.4472 0.6325
vn -0.7746 0.4472 0.4472
vn -0.8640 0.4472 0.2315
vn -0.8944 0.4472 -0.0000
vn -0.8640 0.4472 -0.2315
vn -0.7746 0.4472 -0.4472
vn -0.6325 0.4472 -0.6325
vn -0.4472 0.4472 -0.7746
vn -0.2315 0.4472 -0.8640
vn -0.0000 0.4472 -0.8944
vn 0.2315 0.4472 -0.8640
vn 0.4472 0.4472 -0.7746
vn 0.6325 0.4472 -0.6325
vn 0.7746 0.4472 -0.4472
vn 0.8640 0.4472 -0.2315
vn 0.8944 0.4472 -0.0000
vn 0.8640 0.4472 0.2315
vn 0.7746 0.4472 0.4472
vn 0.6325 0.4472 0.6325
vn 0.4472 0.4472 0.7746
vn 0.2315 0.4472 0.8640
vn -0.0000 -1.0000 -0.0000
vt 0.345217 0.680085
vt 0.345649 0.347966
vt 0.431197 0.668840
vt 0.511270 0.635659
vt 0.579995 0.582922
vt 0.632910 0.514335
vt 0.666299 0.434348
vt 0.677768 0.348398
vt 0.666522 0.262419
vt 0.633341 0.182345
vt 0.580605 0.113621
vt 0.512018 0.060706
vt 0.432031 0.027317
vt 0.346081 0.015848
vt 0.260102 0.027093
vt 0.180028 0.060274
vt 0.111304 0.113010
vt 0.058389 0.181597
vt 0.025000 0.261585
vt 0.013531 0.347534
vt 0.024776 0.433514
vt 0.057957 0.513588
vt 0.110693 0.582312
vt 0.179280 0.635227
vt 0.259268 0.668616
vt 0.563935 0.871975
vt 0.616284 0.896689
vt 0.645155 0.952731
vt 0.599229 0.917699
vt 0.682392 0.912130
vt 0.698582 0.974683
vt 0.755686 0.917252
vt 0.755871 0.982058
vt 0.828949 0.911711
vt 0.813117 0.974355
vt 0.894967 0.895892
vt 0.866418 0.952098
vt 0.947174 0.870878
vt 0.912142 0.916804
vt 0.541678 0.818674
vt 0.598049 0.831383
vt 0.672119 0.839262
vt 0.755470 0.841783
vt 0.838805 0.838785
vt 0.912829 0.830482
vt 0.969126 0.817450
vt 0.533975 0.761428
vt 0.591692 0.761263
vt 0.668462 0.761043
vt 0.755238 0.760795
vt 0.842014 0.760547
vt 0.918784 0.760327
vt 0.976501 0.760162
vt 0.541350 0.704140
vt 0.597647 0.691108
vt 0.671671 0.682805
vt 0.755006 0.679807
vt 0.838357 0.682328
vt 0.912427 0.690207
vt 0.968798 0.702916
vt 0.563302 0.650712
vt 0.615508 0.625698
vt 0.681527 0.609879
vt 0.754790 0.604338
vt 0.828084 0.609460
vt 0.894192 0.624901
vt 0.946541 0.649615
vt 0.598333 0.604786
vt 0.644058 0.569492
vt 0.697359 0.547235
vt 0.754604 0.539532
vt 0.811893 0.546907
vt 0.865321 0.568859
vt 0.911247 0.603890
s 1
f 52/1/1 25/2/2 51/3/3
f 51/3/3 25/2/2 53/4/4
f 53/4/4 25/2/2 54/5/5
f 54/5/5 25/2/2 55/6/6
f 55/6/6 25/2/2 56/7/7
f 56/7/7 25/2/2 57/8/8
f 57/8/8 25/2/2 58/9/9
f 58/9/9 25/2/2 59/10/10
f 59/10/10 25/2/2 60/11/11
f 60/11/11 25/2/2 61/12/12
f 61/12/12 25/2/2 62/13/13
f 62/13/13 25/2/2 63/14/14
f 63/14/14 25/2/2 64/15/15
f 64/15/15 25/2/2 65/16/16
f 65/16/16 25/2/2 66/17/17
f 66/17/17 25/2/2 67/18/18
f 67/18/18 25/2/2 68/19/19
f 68/19/19 25/2/2 69/20/20
f 69/20/20 25/2/2 70/21/21
f 70/21/21 25/2/2 71/22/22
f 71/22/22 25/2/2 72/23/23
f 72/23/23 25/2/2 73/24/24
f 73/24/24 25/2/2 74/25/25
f 74/25/25 25/2/2 52/1/1
f 5/26/26 26/27/26 3/28/26 4/29/26
f 26/27/26 31/30/26 2/31/26 3/28/26
f 31/30/26 36/32/26 1/33/26 2/31/26
f 36/32/26 41/34/26 24/35/26 1/33/26
f 41/34/26 46/36/26 23/37/26 24/35/26
f 46/36/26 21/38/26 22/39/26 23/37/26
f 6/40/26 27/41/26 26/27/26 5/26/26
f 27/41/26 32/42/26 31/30/26 26/27/26
f 32/42/26 37/43/26 36/32/26 31/30/26
f 37/43/26 42/44/26 41/34/26 36/32/26
f 42/44/26 47/45/26 46/36/26 41/34/26
f 47/45/26 20/46/26 21/38/26 46/36/26
f 7/47/26 28/48/26 27/41/26 6/40/26
f 28/48/26 33/49/26 32/42/26 27/41/26
f 33/49/26 38/50/26 37/43/26 32/42/26
f 38/50/26 43/51/26 42/44/26 37/43/26
f 43/51/26 48/52/26 47/45/26 42/44/26
f 48/52/26 19/53/26 20/46/26 47/45/26
f 8/54/26 29/55/26 28/48/26 7/47/26
f 29/55/26 34/56/26 33/49/26 28/48/26
f 34/56/26 39/57/26 38/50/26 33/49/26
f 39/57/26 44/58/26 43/51/26 38/50/26
f 44/58/26 49/59/26 48/52/26 43/51/26
f 49/59/26 18/60/26 19/53/26 48/52/26
f 9/61/26 30/62/26 29/55/26 8/54/26
f 30/62/26 35/63/26 34/56/26 29/55/26
f 35/63/26 40/64/26 39/57/26 34/56/26
f 40/64/26 45/65/26 44/58/26 39/57/26
f 45/65/26 50/66/26 49/59/26 44/58/26
f 50/66/26 17/67/26 18/60/26 49/59/26
f 10/68/26 11/69/26 30/62/26 9/61/26
f 11/69/26 12/70/26 35/63/26 30/62/26
f 12/70/26 13/71/26 40/64/26 35/63/26
f 13/71/26 14/72/26 45/65/26 40/64/26
f 14/72/26 15/73/26 50/66/26 45/65/26
f 15/73/26 16/74/26 17/67/26 50/66/26
