# Blender 4.3.0
# www.blender.org
o Cube_Rounded
v 0.320000 -0.500000 -0.320000
v 0.320000 -0.320000 -0.500000
v 0.500000 -0.320000 -0.320000
v 0.320000 -0.475953 -0.409882
v 0.409882 -0.475953 -0.320000
v 0.406078 -0.452594 -0.406078
v 0.409882 -0.320000 -0.475953
v 0.320000 -0.409882 -0.475953
v 0.406078 -0.406078 -0.452594
v 0.475953 -0.409882 -0.320000
v 0.475953 -0.320000 -0.409882
v 0.452594 -0.406078 -0.406078
v 0.320000 0.320000 -0.500000
v 0.320000 0.500000 -0.320000
v 0.500000 0.320000 -0.320000
v 0.320000 0.409882 -0.475953
v 0.409882 0.320000 -0.475953
v 0.406078 0.406078 -0.452594
v 0.409882 0.475953 -0.320000
v 0.320000 0.475953 -0.409882
v 0.406078 0.452594 -0.406078
v 0.475953 0.320000 -0.409882
v 0.475953 0.409882 -0.320000
v 0.452594 0.406078 -0.406078
v 0.320000 -0.500000 0.320000
v 0.500000 -0.320000 0.320000
v 0.320000 -0.320000 0.500000
v 0.409882 -0.475953 0.320000
v 0.320000 -0.475953 0.409882
v 0.406078 -0.452594 0.406078
v 0.475953 -0.320000 0.409882
v 0.475953 -0.409882 0.320000
v 0.452594 -0.406078 0.406078
v 0.320000 -0.409882 0.475953
v 0.409882 -0.320000 0.475953
v 0.406078 -0.406078 0.452594
v 0.320000 0.500000 0.320000
v 0.320000 0.320000 0.500000
v 0.500000 0.320000 0.320000
v 0.320000 0.475953 0.409882
v 0.409882 0.475953 0.320000
v 0.406078 0.452594 0.406078
v 0.409882 0.320000 0.475953
v 0.320000 0.409882 0.475953
v 0.406078 0.406078 0.452594
v 0.475953 0.409882 0.320000
v 0.475953 0.320000 0.409882
v 0.452594 0.406078 0.406078
v -0.320000 -0.500000 -0.320000
v -0.500000 -0.320000 -0.320000
v -0.320000 -0.320000 -0.500000
v -0.409882 -0.475953 -0.320000
v -0.320000 -0.475953 -0.409882
v -0.406078 -0.452594 -0.406078
v -0.475953 -0.320000 -0.409882
v -0.475953 -0.409882 -0.320000
v -0.452594 -0.406078 -0.406078
v -0.320000 -0.409882 -0.475953
v -0.409882 -0.320000 -0.475953
v -0.406078 -0.406078 -0.452594
v -0.320000 0.500000 -0.320000
v -0.320000 0.320000 -0.500000
v -0.500000 0.320000 -0.320000
v -0.320000 0.475953 -0.409882
v -0.409882 0.475953 -0.320000
v -0.406078 0.452594 -0.406078
v -0.409882 0.320000 -0.475953
v -0.320000 0.409882 -0.475953
v -0.406078 0.406078 -0.452594
v -0.475953 0.409882 -0.320000
v -0.475953 0.320000 -0.409882
v -0.452594 0.406078 -0.406078
v -0.320000 -0.500000 0.320000
v -0.320000 -0.320000 0.500000
v -0.500000 -0.320000 0.320000
v -0.320000 -0.475953 0.409882
v -0.409882 -0.475953 0.320000
v -0.406078 -0.452594 0.406078
v -0.409882 -0.320000 0.475953
v -0.320000 -0.409882 0.475953
v -0.406078 -0.406078 0.452594
v -0.475953 -0.409882 0.320000
v -0.475953 -0.320000 0.409882
v -0.452594 -0.406078 0.406078
v -0.320000 0.500000 0.320000
v -0.500000 0.320000 0.320000
v -0.320000 0.320000 0.500000
v -0.409882 0.475953 0.320000
v -0.320000 0.475953 0.409882
v -0.406078 0.452594 0.406078
v -0.475953 0.320000 0.409882
v -0.475953 0.409882 0.320000
v -0.452594 0.406078 0.406078
v -0.320000 0.409882 0.475953
v -0.409882 0.320000 0.475953
v -0.406078 0.406078 0.452594
vn -0.0846 -0.0846 -0.9928
vn -0.0846 0.0846 -0.9928
vn 0.0846 0.0846 -0.9928
vn 0.0846 -0.0846 -0.9928
vn -0.9928 -0.0846 0.0846
vn -0.9928 0.0846 0.0846
vn -0.9928 0.0846 -0.0846
vn -0.9928 -0.0846 -0.0846
vn -0.0846 0.9928 0.0846
vn 0.0846 0.9928 0.0846
vn 0.0846 0.9928 -0.0846
vn -0.0846 0.9928 -0.0846
vn 0.9928 -0.0846 -0.0846
vn 0.9928 0.0846 -0.0846
vn 0.9928 0.0846 0.0846
vn 0.9928 -0.0846 0.0846
vn 0.0846 -0.0846 0.9928
vn 0.0846 0.0846 0.9928
vn -0.0846 0.0846 0.9928
vn -0.0846 -0.0846 0.9928
vn 0.0847 -0.9928 -0.0847
vn 0.0746 -0.8660 -0.4944
vn 0.4178 -0.8067 -0.4178
vn 0.4944 -0.8660 -0.0746
vn 0.0746 -0.8660 -0.4945
vn 0.0745 -0.4945 -0.8660
vn 0.4178 -0.4179 -0.8067
vn 0.4178 -0.8067 -0.4179
vn 0.0847 -0.0847 -0.9928
vn 0.4944 -0.0746 -0.8660
vn 0.4178 -0.4178 -0.8067
vn 0.0746 -0.4944 -0.8660
vn 0.4945 -0.0746 -0.8660
vn 0.8660 -0.0745 -0.4945
vn 0.8067 -0.4178 -0.4179
vn 0.4179 -0.4178 -0.8067
vn 0.9928 -0.0847 -0.0847
vn 0.8660 -0.4944 -0.0746
vn 0.8067 -0.4178 -0.4178
vn 0.8660 -0.0746 -0.4944
vn 0.8660 -0.4945 -0.0746
vn 0.4945 -0.8660 -0.0745
vn 0.4179 -0.8067 -0.4178
vn 0.8067 -0.4179 -0.4178
vn 0.0847 0.0847 -0.9928
vn 0.0746 0.4944 -0.8660
vn 0.4178 0.4178 -0.8067
vn 0.4944 0.0746 -0.8660
vn 0.0746 0.4945 -0.8660
vn 0.0745 0.8660 -0.4945
vn 0.4178 0.8067 -0.4179
vn 0.4178 0.4179 -0.8067
vn 0.0847 0.9928 -0.0847
vn 0.4944 0.8660 -0.0746
vn 0.4178 0.8067 -0.4178
vn 0.0746 0.8660 -0.4944
vn 0.4945 0.8660 -0.0746
vn 0.8660 0.4945 -0.0745
vn 0.8067 0.4179 -0.4178
vn 0.4179 0.8067 -0.4178
vn 0.9928 0.0847 -0.0847
vn 0.8660 0.0746 -0.4944
vn 0.8067 0.4178 -0.4178
vn 0.8660 0.4944 -0.0746
vn 0.8660 0.0746 -0.4945
vn 0.4945 0.0745 -0.8660
vn 0.4179 0.4178 -0.8067
vn 0.8067 0.4178 -0.4179
vn 0.0847 -0.9928 0.0847
vn 0.4944 -0.8660 0.0746
vn 0.4178 -0.8067 0.4178
vn 0.0746 -0.8660 0.4944
vn 0.4945 -0.8660 0.0746
vn 0.8660 -0.4945 0.0745
vn 0.8067 -0.4179 0.4178
vn 0.4179 -0.8067 0.4178
vn 0.9928 -0.0847 0.0847
vn 0.8660 -0.0746 0.4944
vn 0.8067 -0.4178 0.4178
vn 0.8660 -0.4944 0.0746
vn 0.8660 -0.0746 0.4945
vn 0.4945 -0.0745 0.8660
vn 0.4179 -0.4178 0.8067
vn 0.8067 -0.4178 0.4179
vn 0.0847 -0.0847 0.9928
vn 0.0746 -0.4944 0.8660
vn 0.4178 -0.4178 0.8067
vn 0.4944 -0.0746 0.8660
vn 0.0746 -0.4945 0.8660
vn 0.0745 -0.8660 0.4945
vn 0.4178 -0.8067 0.4179
vn 0.4178 -0.4179 0.8067
vn 0.0847 0.9928 0.0847
vn 0.0746 0.8660 0.4944
vn 0.4178 0.8067 0.4178
vn 0.4944 0.8660 0.0746
vn 0.0746 0.8660 0.4945
vn 0.0745 0.4945 0.8660
vn 0.4178 0.4179 0.8067
vn 0.4178 0.8067 0.4179
vn 0.0847 0.0847 0.9928
vn 0.4944 0.0746 0.8660
vn 0.4178 0.4178 0.8067
vn 0.0746 0.4944 0.8660
vn 0.4945 0.0746 0.8660
vn 0.8660 0.0745 0.4945
vn 0.8067 0.4178 0.4179
vn 0.4179 0.4178 0.8067
vn 0.9928 0.0847 0.0847
vn 0.8660 0.4944 0.0746
vn 0.8067 0.4178 0.4178
vn 0.8660 0.0746 0.4944
vn 0.8660 0.4945 0.0746
vn 0.4945 0.8660 0.0745
vn 0.4179 0.8067 0.4178
vn 0.8067 0.4179 0.4178
vn -0.0847 -0.9928 -0.0847
vn -0.4944 -0.8660 -0.0746
vn -0.4178 -0.8067 -0.4178
vn -0.0746 -0.8660 -0.4944
vn -0.4945 -0.8660 -0.0746
vn -0.8660 -0.4945 -0.0745
vn -0.8067 -0.4179 -0.4178
vn -0.4179 -0.8067 -0.4178
vn -0.9928 -0.0847 -0.0847
vn -0.8660 -0.0746 -0.4944
vn -0.8067 -0.4178 -0.4178
vn -0.8660 -0.4944 -0.0746
vn -0.8660 -0.0746 -0.4945
vn -0.4945 -0.0745 -0.8660
vn -0.4179 -0.4178 -0.8067
vn -0.8067 -0.4178 -0.4179
vn -0.0847 -0.0847 -0.9928
vn -0.0746 -0.4944 -0.8660
vn -0.4178 -0.4178 -0.8067
vn -0.4944 -0.0746 -0.8660
vn -0.0746 -0.4945 -0.8660
vn -0.0745 -0.8660 -0.4945
vn -0.4178 -0.8067 -0.4179
vn -0.4178 -0.4179 -0.8067
vn -0.0847 0.9928 -0.0847
vn -0.0746 0.8660 -0.4944
vn -0.4178 0.8067 -0.4178
vn -0.4944 0.8660 -0.0746
vn -0.0746 0.8660 -0.4945
vn -0.0745 0.4945 -0.8660
vn -0.4178 0.4179 -0.8067
vn -0.4178 0.8067 -0.4179
vn -0.0847 0.0847 -0.9928
vn -0.4944 0.0746 -0.8660
vn -0.4178 0.4178 -0.8067
vn -0.0746 0.4944 -0.8660
vn -0.4945 0.0746 -0.8660
vn -0.8660 0.0745 -0.4945
vn -0.8067 0.4178 -0.4179
vn -0.4179 0.4178 -0.8067
vn -0.9928 0.0847 -0.0847
vn -0.8660 0.4944 -0.0746
vn -0.8067 0.4178 -0.4178
vn -0.8660 0.0746 -0.4944
vn -0.8660 0.4945 -0.0746
vn -0.4945 0.8660 -0.0745
vn -0.4179 0.8067 -0.4178
vn -0.8067 0.4179 -0.4178
vn -0.0847 -0.9928 0.0847
vn -0.0746 -0.8660 0.4944
vn -0.4178 -0.8067 0.4178
vn -0.4944 -0.8660 0.0746
vn -0.0746 -0.8660 0.4945
vn -0.0745 -0.4945 0.8660
vn -0.4178 -0.4179 0.8067
vn -0.4178 -0.8067 0.4179
vn -0.0847 -0.0847 0.9928
vn -0.4944 -0.0746 0.8660
vn -0.4178 -0.4178 0.8067
vn -0.0746 -0.4944 0.8660
vn -0.4945 -0.0746 0.8660
vn -0.8660 -0.0745 0.4945
vn -0.8067 -0.4178 0.4179
vn -0.4179 -0.4178 0.8067
vn -0.9928 -0.0847 0.0847
vn -0.8660 -0.4944 0.0746
vn -0.8067 -0.4178 0.4178
vn -0.8660 -0.0746 0.4944
vn -0.8660 -0.4945 0.0746
vn -0.4945 -0.8660 0.0745
vn -0.4179 -0.8067 0.4178
vn -0.8067 -0.4179 0.4178
vn -0.0847 0.9928 0.0847
vn -0.4944 0.8660 0.0746
vn -0.4178 0.8067 0.4178
vn -0.0746 0.8660 0.4944
vn -0.4945 0.8660 0.0746
vn -0.8660 0.4945 0.0745
vn -0.8067 0.4179 0.4178
vn -0.4179 0.8067 0.4178
vn -0.9928 0.0847 0.0847
vn -0.8660 0.0746 0.4944
vn -0.8067 0.4178 0.4178
vn -0.8660 0.4944 0.0746
vn -0.8660 0.0746 0.4945
vn -0.4945 0.0745 0.8660
vn -0.4179 0.4178 0.8067
vn -0.8067 0.4178 0.4179
vn -0.0847 0.0847 0.9928
vn -0.0746 0.4944 0.8660
vn -0.4178 0.4178 0.8067
vn -0.4944 0.0746 0.8660
vn -0.0746 0.4945 0.8660
vn -0.0745 0.8660 0.4945
vn -0.4178 0.8067 0.4179
vn -0.4178 0.4179 0.8067
vn 0.4944 -0.8660 -0.0745
vn 0.4944 -0.8660 0.0745
vn 0.4945 -0.8660 0.0745
vn 0.8660 -0.4945 -0.0745
vn 0.8660 -0.4944 0.0745
vn 0.8660 -0.4944 -0.0745
vn 0.4944 0.0745 -0.8660
vn 0.4944 -0.0745 -0.8660
vn 0.4945 -0.0745 -0.8660
vn 0.8660 0.0745 -0.4945
vn 0.8660 -0.0745 -0.4944
vn 0.8660 0.0745 -0.4944
vn 0.4944 0.8660 0.0745
vn 0.4944 0.8660 -0.0745
vn 0.4945 0.8660 -0.0745
vn 0.8660 0.4945 0.0745
vn 0.8660 0.4944 -0.0745
vn 0.8660 0.4944 0.0745
vn 0.4944 -0.0745 0.8660
vn 0.4944 0.0745 0.8660
vn 0.4945 0.0745 0.8660
vn 0.8660 -0.0745 0.4945
vn 0.8660 0.0745 0.4944
vn 0.8660 -0.0745 0.4944
vn 0.0745 -0.8660 0.4944
vn -0.0745 -0.8660 0.4944
vn -0.0745 -0.8660 0.4945
vn 0.0745 -0.4945 0.8660
vn -0.0745 -0.4944 0.8660
vn 0.0745 -0.4944 0.8660
vn -0.0745 0.8660 0.4944
vn 0.0745 0.8660 0.4944
vn 0.0745 0.8660 0.4945
vn -0.0745 0.4945 0.8660
vn 0.0745 0.4944 0.8660
vn -0.0745 0.4944 0.8660
vn -0.8660 -0.0745 0.4944
vn -0.8660 0.0745 0.4944
vn -0.8660 0.0745 0.4945
vn -0.4945 -0.0745 0.8660
vn -0.4944 0.0745 0.8660
vn -0.4944 -0.0745 0.8660
vn -0.4944 -0.8660 0.0745
vn -0.4944 -0.8660 -0.0745
vn -0.4945 -0.8660 -0.0745
vn -0.8660 -0.4945 0.0745
vn -0.8660 -0.4944 -0.0745
vn -0.8660 -0.4944 0.0745
vn -0.4944 0.8660 -0.0745
vn -0.4944 0.8660 0.0745
vn -0.4945 0.8660 0.0745
vn -0.8660 0.4945 -0.0745
vn -0.8660 0.4944 0.0745
vn -0.8660 0.4944 -0.0745
vn -0.4944 -0.0745 -0.8660
vn -0.4944 0.0745 -0.8660
vn -0.4945 0.0745 -0.8660
vn -0.8660 -0.0745 -0.4945
vn -0.8660 0.0745 -0.4944
vn -0.8660 -0.0745 -0.4944
vn -0.0745 -0.8660 -0.4944
vn 0.0745 -0.8660 -0.4944
vn 0.0745 -0.8660 -0.4945
vn -0.0745 -0.4945 -0.8660
vn 0.0745 -0.4944 -0.8660
vn -0.0745 -0.4944 -0.8660
vn 0.0745 0.8660 -0.4944
vn -0.0745 0.8660 -0.4944
vn -0.0745 0.8660 -0.4945
vn 0.0745 0.4945 -0.8660
vn -0.0745 0.4944 -0.8660
vn 0.0745 0.4944 -0.8660
vn 0.0846 -0.9928 0.0846
vn -0.0846 -0.9928 0.0846
vn -0.0846 -0.9928 -0.0846
vn 0.0846 -0.9928 -0.0846
vt 0.420000 0.795000
vt 0.580000 0.795000
vt 0.580000 0.955000
vt 0.420000 0.955000
vt 0.420000 0.545000
vt 0.580000 0.545000
vt 0.580000 0.705000
vt 0.420000 0.705000
vt 0.670000 0.545000
vt 0.830000 0.545000
vt 0.830000 0.705000
vt 0.670000 0.705000
vt 0.420000 0.045000
vt 0.580000 0.045000
vt 0.580000 0.205000
vt 0.420000 0.205000
vt 0.420000 0.295000
vt 0.580000 0.295000
vt 0.580000 0.455000
vt 0.420000 0.455000
vt 0.170000 0.705000
vt 0.170000 0.727470
vt 0.148480 0.726520
vt 0.147530 0.705000
vt 0.170000 0.750000
vt 0.148480 0.750000
vt 0.420000 1.000000
vt 0.375000 0.976520
vt 0.375000 0.955000
vt 0.420000 0.000000
vt 0.420000 0.022530
vt 0.375000 0.023480
vt 0.375000 0.000000
vt 0.375000 0.045000
vt 0.125000 0.705000
vt 0.125000 0.726520
vt 0.602471 0.955000
vt 0.601520 1.000000
vt 0.580000 1.000000
vt 0.625000 0.955000
vt 0.625000 1.000000
vt 0.875000 0.705000
vt 0.875000 0.726520
vt 0.830000 0.750000
vt 0.625000 0.045000
vt 0.602470 0.045000
vt 0.601520 0.023480
vt 0.625000 0.023480
vt 0.580000 0.022530
vt 0.580000 0.000000
vt 0.601520 0.000000
vt 0.170000 0.545000
vt 0.147530 0.545000
vt 0.148480 0.523480
vt 0.170000 0.522530
vt 0.125000 0.545000
vt 0.125000 0.523480
vt 0.420000 0.227470
vt 0.375000 0.226520
vt 0.375000 0.205000
vt 0.420000 0.272530
vt 0.375000 0.273480
vt 0.375000 0.295000
vt 0.170000 0.500000
vt 0.148480 0.500000
vt 0.830000 0.500000
vt 0.875000 0.523480
vt 0.875000 0.545000
vt 0.625000 0.295000
vt 0.602470 0.295000
vt 0.601520 0.273481
vt 0.625000 0.250000
vt 0.580000 0.272530
vt 0.580000 0.227470
vt 0.601520 0.226520
vt 0.602471 0.205000
vt 0.625000 0.205000
vt 0.625000 0.226520
vt 0.601520 0.238148
vt 0.330000 0.705000
vt 0.352470 0.705000
vt 0.351520 0.726520
vt 0.330000 0.727470
vt 0.397530 0.705000
vt 0.398480 0.726520
vt 0.420000 0.727470
vt 0.420000 0.772530
vt 0.375000 0.773480
vt 0.375000 0.795000
vt 0.330000 0.750000
vt 0.351520 0.750000
vt 0.363148 0.726519
vt 0.670000 0.750000
vt 0.648481 0.750000
vt 0.647529 0.705000
vt 0.625000 0.795000
vt 0.602470 0.795000
vt 0.601520 0.773481
vt 0.625000 0.773481
vt 0.580000 0.772530
vt 0.580000 0.727470
vt 0.601520 0.726520
vt 0.602471 0.705000
vt 0.601520 0.761851
vt 0.330000 0.545000
vt 0.330000 0.522530
vt 0.351520 0.523481
vt 0.352470 0.545000
vt 0.330000 0.500000
vt 0.351520 0.500000
vt 0.420000 0.477470
vt 0.375000 0.476520
vt 0.375000 0.455000
vt 0.420000 0.522530
vt 0.398481 0.523480
vt 0.397529 0.545000
vt 0.363148 0.523480
vt 0.647529 0.545000
vt 0.648481 0.500000
vt 0.670000 0.500000
vt 0.602470 0.545000
vt 0.601520 0.523481
vt 0.580000 0.522530
vt 0.580000 0.477470
vt 0.601520 0.476520
vt 0.602471 0.455000
vt 0.625000 0.455000
vt 0.625000 0.476520
vt 0.601520 0.488148
s 0
f 51/1/1 62/2/2 13/3/3 2/4/4
f 75/5/5 86/6/6 63/7/7 50/8/8
f 85/9/9 37/10/10 14/11/11 61/12/12
f 3/13/13 15/14/14 39/15/15 26/16/16
f 27/17/17 38/18/18 87/19/19 74/20/20
f 1/21/21 4/22/22 6/23/23 5/24/24
f 4/22/25 8/25/26 9/26/27 6/23/28
f 2/4/29 7/27/30 9/28/31 8/29/32
f 7/30/33 11/31/34 12/32/35 9/33/36
f 3/13/37 10/34/38 12/32/39 11/31/40
f 10/35/41 5/24/42 6/23/43 12/36/44
f 6/23/28 9/26/36 12/36/44
f 13/3/45 16/37/46 18/38/47 17/39/48
f 16/37/49 20/40/50 21/41/51 18/38/52
f 14/11/53 19/42/54 21/43/55 20/44/56
f 19/45/57 23/46/58 24/47/59 21/48/60
f 15/14/61 22/49/62 24/47/63 23/46/64
f 22/49/65 17/50/66 18/51/67 24/47/68
f 18/51/52 21/48/60 24/47/68
f 25/52/69 28/53/70 30/54/71 29/55/72
f 28/53/73 32/56/74 33/57/75 30/54/76
f 26/16/77 31/58/78 33/59/79 32/60/80
f 31/58/81 35/61/82 36/62/83 33/59/84
f 27/17/85 34/63/86 36/62/87 35/61/88
f 34/64/89 29/55/90 30/54/91 36/65/92
f 30/54/76 33/57/84 36/65/92
f 37/10/93 40/66/94 42/67/95 41/68/96
f 40/69/97 44/70/98 45/71/99 42/72/100
f 38/18/101 43/73/102 45/71/103 44/70/104
f 43/73/105 47/74/106 48/75/107 45/71/108
f 39/15/109 46/76/110 48/75/111 47/74/112
f 46/76/113 41/77/114 42/78/115 48/75/116
f 42/78/100 45/79/108 48/75/116
f 49/80/117 52/81/118 54/82/119 53/83/120
f 52/81/121 56/84/122 57/85/123 54/82/124
f 50/8/125 55/86/126 57/85/127 56/84/128
f 55/86/129 59/87/130 60/88/131 57/85/132
f 51/1/133 58/89/134 60/88/135 59/87/136
f 58/90/137 53/83/138 54/82/139 60/91/140
f 54/82/124 57/92/132 60/91/140
f 61/12/141 64/93/142 66/94/143 65/95/144
f 64/96/145 68/97/146 69/98/147 66/99/148
f 62/2/149 67/100/150 69/98/151 68/97/152
f 67/100/153 71/101/154 72/102/155 69/98/156
f 63/7/157 70/103/158 72/102/159 71/101/160
f 70/103/161 65/95/162 66/94/163 72/102/164
f 66/99/148 69/98/156 72/104/164
f 73/105/165 76/106/166 78/107/167 77/108/168
f 76/106/169 80/109/170 81/110/171 78/107/172
f 74/20/173 79/111/174 81/112/175 80/113/176
f 79/111/177 83/114/178 84/115/179 81/112/180
f 75/5/181 82/116/182 84/115/183 83/114/184
f 82/116/185 77/108/186 78/107/187 84/115/188
f 78/107/172 81/110/180 84/117/188
f 85/9/189 88/118/190 90/119/191 89/120/192
f 88/118/193 92/121/194 93/122/195 90/119/196
f 86/6/197 91/123/198 93/122/199 92/121/200
f 91/123/201 95/124/202 96/125/203 93/122/204
f 87/19/205 94/126/206 96/125/207 95/124/208
f 94/126/209 89/127/210 90/128/211 96/125/212
f 90/128/196 93/129/204 96/125/212
f 25/52/69 1/21/21 5/24/213 28/53/214
f 28/53/215 5/24/42 10/35/216 32/56/74
f 32/60/217 10/34/218 3/13/37 26/16/77
f 2/4/29 13/3/45 17/39/219 7/27/220
f 7/30/221 17/50/66 22/49/222 11/31/34
f 11/31/223 22/49/224 15/14/61 3/13/37
f 14/11/53 37/10/93 41/68/225 19/42/226
f 19/45/227 41/77/114 46/76/228 23/46/58
f 23/46/229 46/76/230 39/15/109 15/14/61
f 38/18/101 27/17/85 35/61/231 43/73/232
f 43/73/233 35/61/82 31/58/234 47/74/106
f 47/74/235 31/58/236 26/16/77 39/15/109
f 73/105/165 25/52/69 29/55/237 76/106/238
f 76/106/239 29/55/90 34/64/240 80/109/170
f 80/113/241 34/63/242 27/17/85 74/20/173
f 37/10/93 85/9/189 89/120/243 40/66/244
f 40/69/245 89/127/210 94/126/246 44/70/98
f 44/70/247 94/126/248 87/19/205 38/18/101
f 86/6/197 75/5/181 83/114/249 91/123/250
f 91/123/251 83/114/178 79/111/252 95/124/202
f 95/124/253 79/111/254 74/20/173 87/19/205
f 49/80/117 73/105/165 77/108/255 52/81/256
f 52/81/257 77/108/186 82/116/258 56/84/122
f 56/84/259 82/116/260 75/5/181 50/8/125
f 85/9/189 61/12/141 65/95/261 88/118/262
f 88/118/263 65/95/162 70/103/264 92/121/194
f 92/121/265 70/103/266 63/7/157 86/6/197
f 62/2/149 51/1/133 59/87/267 67/100/268
f 67/100/269 59/87/130 55/86/270 71/101/154
f 71/101/271 55/86/272 50/8/125 63/7/157
f 1/21/21 49/80/117 53/83/273 4/22/274
f 4/22/275 53/83/138 58/90/276 8/25/26
f 8/29/277 58/89/278 51/1/133 2/4/29
f 61/12/141 14/11/53 20/44/279 64/93/280
f 64/96/281 20/40/50 16/37/282 68/97/146
f 68/97/283 16/37/284 13/3/45 62/2/149
f 25/52/285 73/105/286 49/80/287 1/21/288
