# Blender 4.3.0
# www.blender.org
o Cylinder
v 0.000000 -0.500000 0.500000
v 0.000000 0.500000 0.500000
v -0.129410 -0.500000 0.482963
v -0.129410 0.500000 0.482963
v -0.250000 -0.500000 0.433013
v -0.250000 0.500000 0.433013
v -0.353553 -0.500000 0.353553
v -0.353553 0.500000 0.353553
v -0.433013 -0.500000 0.250000
v -0.433013 0.500000 0.250000
v -0.482963 -0.500000 0.129410
v -0.482963 0.500000 0.129410
v -0.500000 -0.500000 0.000000
v -0.500000 0.500000 0.000000
v -0.482963 -0.500000 -0.129410
v -0.482963 0.500000 -0.129410
v -0.433013 -0.500000 -0.250000
v -0.433013 0.500000 -0.250000
v -0.353553 -0.500000 -0.353553
v -0.353553 0.500000 -0.353553
v -0.250000 -0.500000 -0.433013
v -0.250000 0.500000 -0.433013
v -0.129410 -0.500000 -0.482963
v -0.129410 0.500000 -0.482963
v -0.000000 -0.500000 -0.500000
v -0.000000 0.500000 -0.500000
v 0.129410 -0.500000 -0.482963
v 0.129410 0.500000 -0.482963
v 0.250000 -0.500000 -0.433013
v 0.250000 0.500000 -0.433013
v 0.353553 -0.500000 -0.353553
v 0.353553 0.500000 -0.353553
v 0.433013 -0.500000 -0.250000
v 0.433013 0.500000 -0.250000
v 0.482963 -0.500000 -0.129410
v 0.482963 0.500000 -0.129410
v 0.500000 -0.500000 -0.000000
v 0.500000 0.500000 -0.000000
v 0.482963 -0.500000 0.129410
v 0.482963 0.500000 0.129410
v 0.433013 -0.500000 0.250000
v 0.433013 0.500000 0.250000
v 0.353553 -0.500000 0.353553
v 0.353553 0.500000 0.353553
v 0.250000 -0.500000 0.433013
v 0.250000 0.500000 0.433013
v 0.129410 -0.500000 0.482963
v 0.129410 0.500000 0.482963
v -0.314878 0.500000 0.306186
v -0.355662 0.500000 0.158494
v -0.369573 0.500000 0.000000
v -0.355662 0.500000 -0.158494
v -0.314878 0.500000 -0.306186
v -0.165591 0.500000 0.341506
v -0.188335 0.500000 0.176777
v -0.196093 0.500000 0.000000
v -0.188335 0.500000 -0.176777
v -0.165591 0.500000 -0.341506
v 0.000000 0.500000 0.353553
v 0.000000 0.500000 0.183013
v 0.000000 0.500000 0.000000
v -0.000000 0.500000 -0.183013
v -0.000000 0.500000 -0.353553
v 0.165591 0.500000 0.341506
v 0.188335 0.500000 0.176777
v 0.196093 0.500000 -0.000000
v 0.188335 0.500000 -0.176777
v 0.165591 0.500000 -0.341506
v 0.314878 0.500000 0.306186
v 0.355662 0.500000 0.158494
v 0.369573 0.500000 -0.000000
v 0.355662 0.500000 -0.158494
v 0.314878 0.500000 -0.306186
v -0.306186 -0.500000 0.314878
v -0.158494 -0.500000 0.355662
v -0.000000 -0.500000 0.369573
v 0.158494 -0.500000 0.355662
v 0.306186 -0.500000 0.314878
v -0.341506 -0.500000 0.165591
v -0.176777 -0.500000 0.188335
v -0.000000 -0.500000 0.196093
v 0.176777 -0.500000 0.188335
v 0.341506 -0.500000 0.165591
v -0.353553 -0.500000 0.000000
v -0.183013 -0.500000 0.000000
v -0.000000 -0.500000 -0.000000
v 0.183013 -0.500000 -0.000000
v 0.353553 -0.500000 -0.000000
v -0.341506 -0.500000 -0.165591
v -0.176777 -0.500000 -0.188335
v -0.000000 -0.500000 -0.196093
v 0.176777 -0.500000 -0.188335
v 0.341506 -0.500000 -0.165591
v -0.306186 -0.500000 -0.314878
v -0.158494 -0.500000 -0.355662
v -0.000000 -0.500000 -0.369573
v 0.158494 -0.500000 -0.355662
v 0.306186 -0.500000 -0.314878
v 0.000000 -0.500000 0.500000
v -0.129410 -0.500000 0.482963
v -0.129410 0.500000 0.482963
v 0.000000 0.500000 0.500000
v -0.250000 -0.500000 0.433013
v -0.250000 0.500000 0.433013
v -0.353553 -0.500000 0.353553
v -0.353553 0.500000 0.353553
v -0.433013 -0.500000 0.250000
v -0.433013 0.500000 0.250000
v -0.482963 -0.500000 0.129410
v -0.482963 0.500000 0.129410
v -0.500000 -0.500000 0.000000
v -0.500000 0.500000 0.000000
v -0.482963 -0.500000 -0.129410
v -0.482963 0.500000 -0.129410
v -0.433013 -0.500000 -0.250000
v -0.433013 0.500000 -0.250000
v -0.353553 -0.500000 -0.353553
v -0.353553 0.500000 -0.353553
v -0.250000 -0.500000 -0.433013
v -0.250000 0.500000 -0.433013
v -0.129410 -0.500000 -0.482963
v -0.129410 0.500000 -0.482963
v -0.000000 -0.500000 -0.500000
v -0.000000 0.500000 -0.500000
v 0.129410 -0.500000 -0.482963
v 0.129410 0.500000 -0.482963
v 0.250000 -0.500000 -0.433013
v 0.250000 0.500000 -0.433013
v 0.353553 -0.500000 -0.353553
v 0.353553 0.500000 -0.353553
v 0.433013 -0.500000 -0.250000
v 0.433013 0.500000 -0.250000
v 0.482963 -0.500000 -0.129410
v 0.482963 0.500000 -0.129410
v 0.500000 -0.500000 -0.000000
v 0.500000 0.500000 -0.000000
v 0.482963 -0.500000 0.129410
v 0.482963 0.500000 0.129410
v 0.433013 -0.500000 0.250000
v 0.433013 0.500000 0.250000
v 0.353553 -0.500000 0.353553
v 0.353553 0.500000 0.353553
v 0.250000 -0.500000 0.433013
v 0.250000 0.500000 0.433013
v 0.129410 -0.500000 0.482963
v 0.129410 0.500000 0.482963
vn -0.0000 -0.0000 1.0000
vn -0.2588 -0.0000 0.9659
vn -0.5000 -0.0000 0.8660
vn -0.7071 -0.0000 0.7071
vn -0.8660 -0.0000 0.5000
vn -0.9659 -0.0000 0.2588
vn -1.0000 -0.0000 -0.0000
vn -0.9659 -0.0000 -0.2588
vn -0.8660 -0.0000 -0.5000
vn -0.7071 -0.0000 -0.7071
vn -0.5000 -0.0000 -0.8660
vn -0.2588 -0.0000 -0.9659
vn -0.0000 -0.0000 -1.0000
vn 0.2588 -0.0000 -0.9659
vn 0.5000 -0.0000 -0.8660
vn 0.7071 -0.0000 -0.7071
vn 0.8660 -0.0000 -0.5000
vn 0.9659 -0.0000 -0.2588
vn 1.0000 -0.0000 -0.0000
vn 0.9659 -0.0000 0.2588
vn 0.8660 -0.0000 0.5000
vn 0.7071 -0.0000 0.7071
vn 0.5000 -0.0000 0.8660
vn 0.2588 -0.0000 0.9659
vn -0.0000 1.0000 -0.0000
vn -0.0000 -1.0000 -0.0000
vt 0.000915 0.500335
vt 0.319545 0.499665
vt 0.319783 0.541264
vt 0.001155 0.541894
vt 0.319998 0.582902
vt 0.001376 0.583415
vt 0.320174 0.624576
vt 0.001563 0.624900
vt 0.320292 0.666280
vt 0.001697 0.666357
vt 0.320341 0.708006
vt 0.001767 0.707792
vt 0.320311 0.749746
vt 0.001762 0.749213
vt 0.320199 0.791488
vt 0.001676 0.790632
vt 0.320006 0.833223
vt 0.001508 0.832059
vt 0.319740 0.874938
vt 0.001259 0.873503
vt 0.319417 0.916625
vt 0.000936 0.914974
vt 0.319055 0.958275
vt 0.000553 0.956481
vt 0.318596 0.999880
vt 0.000120 0.998030
vt 0.001865 0.000120
vt 0.320341 0.001970
vt 0.319908 0.043519
vt 0.001406 0.041725
vt 0.319525 0.085026
vt 0.001044 0.083375
vt 0.319202 0.126497
vt 0.000720 0.125062
vt 0.318953 0.167941
vt 0.000455 0.166777
vt 0.318784 0.209368
vt 0.000262 0.208512
vt 0.318699 0.250787
vt 0.000150 0.250254
vt 0.318694 0.292209
vt 0.000120 0.291994
vt 0.318763 0.333643
vt 0.000168 0.333720
vt 0.318898 0.375100
vt 0.000287 0.375424
vt 0.319084 0.416585
vt 0.000462 0.417098
vt 0.319306 0.458106
vt 0.000678 0.458736
vt 0.591122 0.270661
vt 0.558134 0.295973
vt 0.578802 0.255572
vt 0.616434 0.237674
vt 0.519720 0.311885
vt 0.531245 0.266824
vt 0.478495 0.317313
vt 0.478495 0.270661
vt 0.437271 0.311885
vt 0.425746 0.266824
vt 0.398857 0.295973
vt 0.378189 0.255572
vt 0.365869 0.270661
vt 0.340557 0.237674
vt 0.591794 0.208524
vt 0.632346 0.199259
vt 0.538491 0.214348
vt 0.478495 0.216335
vt 0.418500 0.214348
vt 0.365197 0.208524
vt 0.324645 0.199259
vt 0.596225 0.158035
vt 0.637773 0.158035
vt 0.540962 0.158035
vt 0.478495 0.158035
vt 0.416029 0.158035
vt 0.360766 0.158035
vt 0.319218 0.158035
vt 0.591794 0.107546
vt 0.632346 0.116811
vt 0.538491 0.101722
vt 0.478496 0.099735
vt 0.418500 0.101722
vt 0.365197 0.107546
vt 0.324645 0.116811
vt 0.578802 0.060498
vt 0.616434 0.078396
vt 0.531245 0.049246
vt 0.478496 0.045408
vt 0.425746 0.049246
vt 0.378189 0.060498
vt 0.340557 0.078396
vt 0.558134 0.020096
vt 0.591122 0.045409
vt 0.519720 0.004184
vt 0.478496 -0.001243
vt 0.437271 0.004184
vt 0.398857 0.020096
vt 0.365869 0.045408
vt 0.365869 0.586731
vt 0.340557 0.553743
vt 0.380958 0.574411
vt 0.398857 0.612043
vt 0.324645 0.515329
vt 0.369707 0.526854
vt 0.319218 0.474104
vt 0.365869 0.474104
vt 0.324645 0.432880
vt 0.369707 0.421355
vt 0.340557 0.394466
vt 0.380958 0.373798
vt 0.365869 0.361478
vt 0.398857 0.336166
vt 0.428006 0.587403
vt 0.437271 0.627955
vt 0.422182 0.534100
vt 0.420196 0.474104
vt 0.422182 0.414109
vt 0.428006 0.360806
vt 0.437271 0.320254
vt 0.478495 0.591834
vt 0.478495 0.633382
vt 0.478495 0.536571
vt 0.478495 0.474104
vt 0.478495 0.411638
vt 0.478495 0.356375
vt 0.478495 0.314827
vt 0.528984 0.587403
vt 0.519720 0.627955
vt 0.534809 0.534100
vt 0.536795 0.474104
vt 0.534809 0.414109
vt 0.528984 0.360806
vt 0.519720 0.320254
vt 0.576033 0.574411
vt 0.558134 0.612043
vt 0.587284 0.526854
vt 0.591122 0.474104
vt 0.587284 0.421355
vt 0.576033 0.373798
vt 0.558134 0.336166
vt 0.616434 0.553743
vt 0.591122 0.586731
vt 0.632346 0.515329
vt 0.637773 0.474104
vt 0.632346 0.432880
vt 0.616434 0.394466
vt 0.591122 0.361478
s 0
f 99/1/1 102/2/1 101/3/2 100/4/2
f 100/4/2 101/3/2 104/5/3 103/6/3
f 103/6/3 104/5/3 106/7/4 105/8/4
f 105/8/4 106/7/4 108/9/5 107/10/5
f 107/10/5 108/9/5 110/11/6 109/12/6
f 109/12/6 110/11/6 112/13/7 111/14/7
f 111/14/7 112/13/7 114/15/8 113/16/8
f 113/16/8 114/15/8 116/17/9 115/18/9
f 115/18/9 116/17/9 118/19/10 117/20/10
f 117/20/10 118/19/10 120/21/11 119/22/11
f 119/22/11 120/21/11 122/23/12 121/24/12
f 121/24/12 122/23/12 124/25/13 123/26/13
f 123/27/13 124/28/13 126/29/14 125/30/14
f 125/30/14 126/29/14 128/31/15 127/32/15
f 127/32/15 128/31/15 130/33/16 129/34/16
f 129/34/16 130/33/16 132/35/17 131/36/17
f 131/36/17 132/35/17 134/37/18 133/38/18
f 133/38/18 134/37/18 136/39/19 135/40/19
f 135/40/19 136/39/19 138/41/20 137/42/20
f 137/42/20 138/41/20 140/43/21 139/44/21
f 139/44/21 140/43/21 142/45/22 141/46/22
f 141/46/22 142/45/22 144/47/23 143/48/23
f 143/48/23 144/47/23 146/49/24 145/50/24
f 145/50/24 146/49/24 102/2/1 99/1/1
f 8/51/25 6/52/25 49/53/25 10/54/25
f 6/52/25 4/55/25 54/56/25 49/53/25
f 4/55/25 2/57/25 59/58/25 54/56/25
f 2/57/25 48/59/25 64/60/25 59/58/25
f 48/59/25 46/61/25 69/62/25 64/60/25
f 46/61/25 44/63/25 42/64/25 69/62/25
f 10/54/25 49/53/25 50/65/25 12/66/25
f 49/53/25 54/56/25 55/67/25 50/65/25
f 54/56/25 59/58/25 60/68/25 55/67/25
f 59/58/25 64/60/25 65/69/25 60/68/25
f 64/60/25 69/62/25 70/70/25 65/69/25
f 69/62/25 42/64/25 40/71/25 70/70/25
f 12/66/25 50/65/25 51/72/25 14/73/25
f 50/65/25 55/67/25 56/74/25 51/72/25
f 55/67/25 60/68/25 61/75/25 56/74/25
f 60/68/25 65/69/25 66/76/25 61/75/25
f 65/69/25 70/70/25 71/77/25 66/76/25
f 70/70/25 40/71/25 38/78/25 71/77/25
f 14/73/25 51/72/25 52/79/25 16/80/25
f 51/72/25 56/74/25 57/81/25 52/79/25
f 56/74/25 61/75/25 62/82/25 57/81/25
f 61/75/25 66/76/25 67/83/25 62/82/25
f 66/76/25 71/77/25 72/84/25 67/83/25
f 71/77/25 38/78/25 36/85/25 72/84/25
f 16/80/25 52/79/25 53/86/25 18/87/25
f 52/79/25 57/81/25 58/88/25 53/86/25
f 57/81/25 62/82/25 63/89/25 58/88/25
f 62/82/25 67/83/25 68/90/25 63/89/25
f 67/83/25 72/84/25 73/91/25 68/90/25
f 72/84/25 36/85/25 34/92/25 73/91/25
f 18/87/25 53/86/25 22/93/25 20/94/25
f 53/86/25 58/88/25 24/95/25 22/93/25
f 58/88/25 63/89/25 26/96/25 24/95/25
f 63/89/25 68/90/25 28/97/25 26/96/25
f 68/90/25 73/91/25 30/98/25 28/97/25
f 73/91/25 34/92/25 32/99/25 30/98/25
f 7/100/26 9/101/26 74/102/26 5/103/26
f 9/101/26 11/104/26 79/105/26 74/102/26
f 11/104/26 13/106/26 84/107/26 79/105/26
f 13/106/26 15/108/26 89/109/26 84/107/26
f 15/108/26 17/110/26 94/111/26 89/109/26
f 17/110/26 19/112/26 21/113/26 94/111/26
f 5/103/26 74/102/26 75/114/26 3/115/26
f 74/102/26 79/105/26 80/116/26 75/114/26
f 79/105/26 84/107/26 85/117/26 80/116/26
f 84/107/26 89/109/26 90/118/26 85/117/26
f 89/109/26 94/111/26 95/119/26 90/118/26
f 94/111/26 21/113/26 23/120/26 95/119/26
f 3/115/26 75/114/26 76/121/26 1/122/26
f 75/114/26 80/116/26 81/123/26 76/121/26
f 80/116/26 85/117/26 86/124/26 81/123/26
f 85/117/26 90/118/26 91/125/26 86/124/26
f 90/118/26 95/119/26 96/126/26 91/125/26
f 95/119/26 23/120/26 25/127/26 96/126/26
f 1/122/26 76/121/26 77/128/26 47/129/26
f 76/121/26 81/123/26 82/130/26 77/128/26
f 81/123/26 86/124/26 87/131/26 82/130/26
f 86/124/26 91/125/26 92/132/26 87/131/26
f 91/125/26 96/126/26 97/133/26 92/132/26
f 96/126/26 25/127/26 27/134/26 97/133/26
f 47/129/26 77/128/26 78/135/26 45/136/26
f 77/128/26 82/130/26 83/137/26 78/135/26
f 82/130/26 87/131/26 88/138/26 83/137/26
f 87/131/26 92/132/26 93/139/26 88/138/26
f 92/132/26 97/133/26 98/140/26 93/139/26
f 97/133/26 27/134/26 29/141/26 98/140/26
f 45/136/26 78/135/26 41/142/26 43/143/26
f 78/135/26 83/137/26 39/144/26 41/142/26
f 83/137/26 88/138/26 37/145/26 39/144/26
f 88/138/26 93/139/26 35/146/26 37/145/26
f 93/139/26 98/140/26 33/147/26 35/146/26
f 98/140/26 29/141/26 31/148/26 33/147/26
